<svg version="1.1" xmlns="http://www.w3.org/2000/svg" xmlns:xlink="http://www.w3.org/1999/xlink" width="61.99117" height="64.52645" viewBox="0,0,61.99117,64.52645"><defs><linearGradient x1="212.53978" y1="210.66395" x2="268.65976" y2="210.66395" gradientTransform="translate(-425.07956,-432.86541) scale(2,2)" gradientUnits="userSpaceOnUse" id="color-1"><stop offset="0" stop-color="#6500ff"/><stop offset="1" stop-color="#ff00d7"/></linearGradient></defs><g transform="translate(-209.08206,-158.15625)"><g data-paper-data="{&quot;isPaintingLayer&quot;:true}" fill="none" fill-rule="nonzero" stroke="none" stroke-width="none" stroke-linecap="none" stroke-linejoin="miter" stroke-miterlimit="10" stroke-dasharray="" stroke-dashoffset="0" font-family="none" font-weight="none" font-size="none" text-anchor="none" style="mix-blend-mode: normal"><path d="M258,177.65625c0,9.80306 -8.28273,17.75 -18.5,17.75c-10.21727,0 -18.5,-7.94694 -18.5,-17.75c0,-9.80305 8.28273,-17.75 18.5,-17.75c10.21727,0 18.5,7.94695 18.5,17.75z" data-paper-data="{&quot;origPos&quot;:null}" fill="none" stroke="#b800ff" stroke-width="3.5" stroke-linecap="butt"/><path d="M219.875,175.15625c0,0 -6.18236,0.76939 -7.45842,2.25272c-0.60007,0.69754 -0.69219,0.98062 -1.06572,1.82152c-0.38093,0.85755 -0.72599,1.58957 -0.36912,2.45741c0.35162,0.85505 3.3999,1.93606 4.32436,1.94664c3.7613,0.04305 5.87795,0.29306 9.6359,0.12868c4.01493,-0.17562 6.841,0.80216 10.85506,0.60788c4.01032,-0.1941 5.12358,0.25745 9.13839,0.2169c6.22006,-0.06283 12.26629,-0.95749 12.59173,-0.99748c0.10848,-0.01333 3.38377,-0.48508 3.49226,-0.4983c0.1064,-0.01296 2.41696,-0.26561 2.52411,-0.26264c0.32144,0.00889 1.53938,-0.14706 3.33906,-0.71864c1.37349,-0.43623 3.02674,-3.249 2.23472,-4.45295c-1.28934,-1.95993 -2.43176,-2.72866 -4.64434,-3.50855c-1.86754,-0.65827 -5.47299,-0.74319 -5.47299,-0.74319" data-paper-data="{&quot;origPos&quot;:null}" fill="none" stroke="#b800ff" stroke-width="3.5" stroke-linecap="round"/><text transform="translate(212.53978,216.4327) scale(0.5,0.5)" font-size="40" xml:space="preserve" data-paper-data="{&quot;origPos&quot;:null}" fill="url(#color-1)" fill-rule="nonzero" stroke="none" stroke-width="1" stroke-linecap="butt" stroke-linejoin="miter" stroke-miterlimit="10" stroke-dasharray="" stroke-dashoffset="0" font-family="sans-serif" font-weight="normal" text-anchor="start" style="mix-blend-mode: normal"><tspan x="0" dy="0">imute</tspan></text></g></g></svg>